# xmcd
#
# Track frame offsets: 
#        150
#        12640
#        22814
#        36560
#        50065
#        61284
#        75141
#        85502
#        96105
#        105504
#        115421
#        130516
#        142377
#        153646
#        171698
#        182224
#        199951
#        213283
#        220758
#        235471
#
# Disc length: 3289 seconds
#
# Revision: 0
# Processed by: cddbd v1.5.2PL0 Copyright (c) Steve Scherf et al.
# Submitted via: ExactAudioCopy v1.0b4
#
DISCID=200cd714
DTITLE=Various Artist - The Best of American Folk and Blues [CD3]
DYEAR=2016
DGENRE=Blues
TTITLE0=B.B. King - When My Heart Beats Like a Hammer
TTITLE1=Brownie McGhee - Mean Old Frisco
TTITLE2=Dave Van Ronk - In the Pines
TTITLE3=Memphis Slim - We're Gonna Rock
TTITLE4=Lightnin' Hopkins - I Wonder Why
TTITLE5=The Kingston Trio - Tom Dooley
TTITLE6=Lightnin' Slim - Mind Your Own Business
TTITLE7=Eddie Kirkland - Down On My Knees
TTITLE8=Walter Parham - George Pegram - The Yellow Rose of Texas
TTITLE9=Slim Harpo - Don't Start Cryin' Now
TTITLE10=Jimmy Witherspoon - I'll Never Be Free
TTITLE11=Woody Guthrie - Jackhammer Blues
TTITLE12=Earl Gaines - Can't Keep from Cryin'
TTITLE13=Pat Foster - Strawberry Roan
TTITLE14=Freddy King - Swooshy
TTITLE15=T-Bone Walker - I'm In Love
TTITLE16=Smokey Hogg - Shake a Leg
TTITLE17=Paul Clayton - Goodbye, Little Bonnie, Goodbye
TTITLE18=Sonny Terry - Goin Down Slow
TTITLE19=Pete Seeger - Last Night I Had the Strangest Dream
EXTD=
EXTT0=
EXTT1=
EXTT2=
EXTT3=
EXTT4=
EXTT5=
EXTT6=
EXTT7=
EXTT8=
EXTT9=
EXTT10=
EXTT11=
EXTT12=
EXTT13=
EXTT14=
EXTT15=
EXTT16=
EXTT17=
EXTT18=
EXTT19=
PLAYORDER=
